<svg width="30" height="30" viewBox="0 0 30 30" fill="none" xmlns="http://www.w3.org/2000/svg">
<g clip-path="url(#clip0_73_226)">
<path d="M15 30.0005C23.2843 30.0005 30 23.2848 30 15.0005C30 6.71622 23.2843 0.000488281 15 0.000488281C6.71573 0.000488281 0 6.71622 0 15.0005C0 23.2848 6.71573 30.0005 15 30.0005Z" fill="#71D456"/>
<path d="M4.9155 10.0555V9.1066C4.9155 8.90621 4.75637 8.74707 4.55597 8.74707H3.49507C2.87031 8.74707 2.35754 9.25395 2.35754 9.8846C2.35754 10.5093 2.86442 11.0221 3.49507 11.0221H5.42827V10.0555H4.9155Z" fill="#4485C5"/>
<path d="M25.0844 10.0555V9.1066C25.0844 8.90621 25.2436 8.74707 25.444 8.74707H26.5049C27.1296 8.74707 27.6424 9.25395 27.6424 9.8846C27.6424 10.5093 27.1355 11.0221 26.5049 11.0221H24.5717V10.0555H25.0844Z" fill="#4485C5"/>
<path d="M2.73474 18.3657V24.849C2.73474 25.1437 2.97639 25.3854 3.27109 25.3854H5.82315C6.11785 25.3854 6.3595 25.1437 6.3595 24.849V18.3657H2.73474Z" fill="#333842"/>
<path d="M23.6345 18.3657V24.849C23.6345 25.1437 23.8762 25.3854 24.1709 25.3854H26.7229C27.0176 25.3854 27.2593 25.1437 27.2593 24.849V18.3657H23.6345Z" fill="#333842"/>
<path d="M27.2829 14.4286C26.947 13.4738 26.0982 13.1909 25.7623 12.1771C25.4263 11.1634 22.8861 5.86475 21.5953 5.19284C20.3045 4.52093 15 4.62703 15 4.62703C15 4.62703 9.70728 4.51504 8.41062 5.19284C7.11396 5.87064 4.57958 11.1575 4.23774 12.1712C3.90178 13.185 3.05306 13.4679 2.71711 14.4227C2.38115 15.3775 2.88803 22.5386 3.56583 23.0455C4.24363 23.5524 15 23.6644 15 23.6644C15 23.6644 25.7623 23.5524 26.4342 23.0455C27.112 22.5386 27.6189 15.3834 27.2829 14.4286Z" fill="#5AA4D1"/>
<path d="M22.167 8.75293L15 9.21265L7.83297 8.75293L5.61096 11.0221C5.61096 11.0221 8.99996 15.6606 9.51862 16.9749C10.0373 18.2893 9.55399 18.5958 10.1375 18.973H15H19.8624C20.4459 18.5899 19.9626 18.2893 20.4813 16.9749C21 15.6606 24.389 11.0221 24.389 11.0221L22.167 8.75293Z" fill="#6EB1E1"/>
<path d="M19.5265 20.4287H10.4735C9.94304 20.4287 9.51868 20.859 9.51868 21.3835C9.51868 21.914 9.94893 22.3383 10.4735 22.3383H19.5265C20.057 22.3383 20.4813 21.9081 20.4813 21.3835C20.4813 20.859 20.057 20.4287 19.5265 20.4287Z" fill="#333842"/>
<path d="M4.03731 21.0772L4.38505 19.5624C4.46757 19.197 4.80352 18.9495 5.17484 18.9789L7.72101 19.1675C8.25146 19.2088 8.56973 19.7805 8.31629 20.252L7.65617 21.4956C7.56187 21.6725 7.36737 21.7727 7.16698 21.755L4.27307 21.419C4.11393 21.4013 4.00195 21.2422 4.03731 21.0772Z" fill="#333842"/>
<path d="M25.9626 21.0772L25.6149 19.5624C25.5323 19.197 25.1964 18.9495 24.8251 18.9789L22.2789 19.1675C21.7485 19.2088 21.4302 19.7805 21.6836 20.252L22.3437 21.4956C22.438 21.6725 22.6325 21.7727 22.8329 21.755L25.7268 21.419C25.886 21.4013 25.998 21.2422 25.9626 21.0772Z" fill="#333842"/>
<path d="M14.4931 17.1458H10.4263C10.1493 17.1458 9.91943 16.9218 9.91943 16.6389V14.747C9.91943 14.6173 10.0255 14.5171 10.1493 14.5171H14.4872C14.6169 14.5171 14.7171 14.6232 14.7171 14.747V16.91C14.7289 17.0456 14.6228 17.1458 14.4931 17.1458Z" fill="#333842"/>
<path d="M15.5068 17.1458H19.5736C19.8507 17.1458 20.0805 16.9218 20.0805 16.6389V14.747C20.0805 14.6173 19.9744 14.5171 19.8507 14.5171H15.5127C15.3831 14.5171 15.2829 14.6232 15.2829 14.747V16.91C15.2711 17.0456 15.3772 17.1458 15.5068 17.1458Z" fill="#333842"/>
<path d="M19.8507 17.6348H10.1729C9.94896 17.6348 9.80162 17.8764 9.9136 18.0768L10.2142 18.6073C10.2672 18.7016 10.3674 18.7605 10.4735 18.7605H19.556C19.6621 18.7605 19.7623 18.7016 19.8154 18.6073L20.116 18.0768C20.222 17.8764 20.0806 17.6348 19.8507 17.6348Z" fill="#333842"/>
<path d="M8.40474 16.2856H4.77409C4.14933 16.2856 3.64246 15.7787 3.64246 15.1539C3.64246 14.4349 4.30257 13.9044 5.00395 14.0459L8.21024 14.7178C8.58745 14.7944 8.88804 15.0655 9.0177 15.4251C9.15916 15.8494 8.84678 16.2856 8.40474 16.2856Z" fill="#FFFFFC"/>
<path d="M21.5953 16.2856H25.2259C25.8507 16.2856 26.3575 15.7787 26.3575 15.1539C26.3575 14.4349 25.6974 13.9044 24.996 14.0459L21.7898 14.7178C21.4125 14.7944 21.112 15.0655 20.9823 15.4251C20.8408 15.8494 21.1532 16.2856 21.5953 16.2856Z" fill="#FFFFFC"/>
<path d="M21.8369 6.04192C21.0294 5.54094 15 5.60577 15 5.60577C15 5.60577 8.97638 5.54094 8.16302 6.04192C7.34967 6.5429 5.61096 11.0282 5.61096 11.0282C7.29073 10.6215 15 10.592 15 10.592C15 10.592 22.7092 10.6215 24.389 11.0282C24.389 11.0223 22.6444 6.53701 21.8369 6.04192Z" fill="#333842"/>
</g>
<defs>
<clipPath id="clip0_73_226">
<rect width="30" height="30" fill="white" transform="translate(0 0.000488281)"/>
</clipPath>
</defs>
</svg>
