<svg width="30" height="30" viewBox="0 0 30 30" fill="none" xmlns="http://www.w3.org/2000/svg">
<g clip-path="url(#clip0_73_172)">
<path d="M21.263 23.5178H4.22753C3.67406 23.5178 3.22546 23.0692 3.22546 22.5157V1.4718C3.22546 0.91832 3.67406 0.469727 4.22753 0.469727H21.263C21.8165 0.469727 22.2651 0.91832 22.2651 1.4718V22.5156C22.2652 23.0691 21.8165 23.5178 21.263 23.5178Z" fill="#F1F4FB"/>
<path d="M22.2652 22.5154V17.6103C22.2553 17.613 22.2448 17.6139 22.2349 17.6168C21.8336 17.2882 21.3382 17.0727 20.7905 17.0179C20.781 17.0169 20.7715 17.0161 20.7621 17.0152V12.244C20.7621 10.7246 19.526 9.48834 18.0065 9.48828H18.0065C17.9145 9.48828 17.8214 9.49285 17.7275 9.50223C16.3155 9.64356 15.2506 10.853 15.2506 12.3155V17.8845L14.1724 18.9627C13.1838 19.9513 12.7848 21.3541 13.105 22.7151L13.2938 23.5176H21.2631C21.8165 23.5176 22.2652 23.0688 22.2652 22.5154Z" fill="#D5DCED"/>
<path d="M7.73479 7.98522C8.56494 7.98522 9.2379 7.31225 9.2379 6.48211C9.2379 5.65197 8.56494 4.979 7.73479 4.979C6.90465 4.979 6.23169 5.65197 6.23169 6.48211C6.23169 7.31225 6.90465 7.98522 7.73479 7.98522Z" fill="#B4E66E"/>
<path d="M7.73479 13.4969C8.56494 13.4969 9.2379 12.824 9.2379 11.9938C9.2379 11.1637 8.56494 10.4907 7.73479 10.4907C6.90465 10.4907 6.23169 11.1637 6.23169 11.9938C6.23169 12.824 6.90465 13.4969 7.73479 13.4969Z" fill="#DAE169"/>
<path d="M7.73479 19.0082C8.56494 19.0082 9.2379 18.3352 9.2379 17.5051C9.2379 16.6749 8.56494 16.002 7.73479 16.002C6.90465 16.002 6.23169 16.6749 6.23169 17.5051C6.23169 18.3352 6.90465 19.0082 7.73479 19.0082Z" fill="#FFDC64"/>
<path d="M25.6511 19.516C24.9013 19.4409 24.2693 20.0277 24.2693 20.7621V20.3325C24.2693 19.6772 23.7978 19.0802 23.1458 19.0149C22.396 18.9399 21.764 19.5266 21.764 20.261V19.8314C21.764 19.1762 21.2925 18.5791 20.6405 18.5139C19.8907 18.4388 19.2587 19.0256 19.2587 19.76V12.2443C19.2587 11.5099 18.6267 10.9231 17.8769 10.9982C17.2249 11.0635 16.7534 11.6605 16.7534 12.3157V18.5073L15.235 20.0257C14.6215 20.6392 14.3692 21.5264 14.5679 22.371L15.6162 26.8263C15.9889 28.4106 17.4026 29.5303 19.0303 29.5303H23.2673C25.2043 29.5303 26.7746 27.96 26.7746 26.023V20.8335C26.7746 20.1782 26.3031 19.5812 25.6511 19.516Z" fill="#F0C087"/>
<path d="M19.7599 20.9809C20.0366 20.9809 20.261 20.7565 20.261 20.4799V18.5391C19.6904 18.6561 19.2589 19.1545 19.2589 19.7597V20.4799C19.2589 20.7565 19.4833 20.9809 19.7599 20.9809Z" fill="#E6AF78"/>
<path d="M22.2652 21.4819C22.5419 21.4819 22.7662 21.2575 22.7662 20.9808V19.04C22.1956 19.1571 21.7642 19.6555 21.7642 20.2607V20.9808C21.7642 21.2576 21.9885 21.4819 22.2652 21.4819Z" fill="#E6AF78"/>
<path d="M24.7704 21.9829C25.0471 21.9829 25.2715 21.7585 25.2715 21.4818V19.541C24.7009 19.658 24.2694 20.1565 24.2694 20.7617V21.4818C24.2694 21.7586 24.4938 21.9829 24.7704 21.9829Z" fill="#E6AF78"/>
<path d="M16.8666 26.8262L15.7049 21.889C15.5767 21.3441 15.7395 20.7715 16.1354 20.3756L16.7538 19.7573V21.0124C16.7538 21.2891 16.9781 21.5135 17.2548 21.5135C17.5315 21.5135 17.7558 21.2891 17.7558 21.0124V11.0229C17.1687 11.1463 16.7538 11.7025 16.7538 12.3155V18.5072L15.2354 20.0256C14.6219 20.6391 14.3695 21.5263 14.5682 22.3709L15.6165 26.8262C15.9893 28.4105 17.403 29.5301 19.0305 29.5301H20.2807C18.653 29.5301 17.2393 28.4105 16.8666 26.8262Z" fill="#E6AF78"/>
<path d="M9.23798 6.01244C8.97858 6.01244 8.76823 6.22273 8.76823 6.48219C8.76823 7.05201 8.30464 7.51561 7.73481 7.51561C7.16499 7.51561 6.7014 7.05201 6.7014 6.48219C6.7014 5.91236 7.16499 5.44877 7.73481 5.44877C7.99421 5.44877 8.20456 5.23848 8.20456 4.97902C8.20456 4.71963 7.99427 4.50928 7.73481 4.50928C6.64696 4.50928 5.76196 5.39434 5.76196 6.48213C5.76196 7.56992 6.64702 8.45498 7.73481 8.45498C8.82267 8.45498 9.70767 7.56992 9.70767 6.48213C9.70767 6.22273 9.49737 6.01244 9.23798 6.01244Z" fill="black"/>
<path d="M9.23798 11.5242C8.97858 11.5242 8.76823 11.7345 8.76823 11.9939C8.76823 12.5637 8.30464 13.0273 7.73481 13.0273C7.16499 13.0273 6.7014 12.5637 6.7014 11.9939C6.7014 11.4241 7.16499 10.9605 7.73481 10.9605C7.99421 10.9605 8.20456 10.7502 8.20456 10.4907C8.20456 10.2313 7.99427 10.021 7.73481 10.021C6.64696 10.021 5.76196 10.9061 5.76196 11.9938C5.76196 13.0816 6.64702 13.9667 7.73481 13.9667C8.82267 13.9667 9.70767 13.0816 9.70767 11.9938C9.70767 11.7345 9.49737 11.5242 9.23798 11.5242Z" fill="black"/>
<path d="M14.7495 12.5259H11.2422C10.9828 12.5259 10.7725 12.7362 10.7725 12.9956C10.7725 13.2551 10.9828 13.4654 11.2422 13.4654H14.7495C15.0089 13.4654 15.2193 13.2551 15.2193 12.9956C15.2193 12.7362 15.009 12.5259 14.7495 12.5259Z" fill="black"/>
<path d="M14.7495 10.522H11.2422C10.9828 10.522 10.7725 10.7323 10.7725 10.9917C10.7725 11.2512 10.9828 11.4615 11.2422 11.4615H14.7495C15.0089 11.4615 15.2193 11.2512 15.2193 10.9917C15.2193 10.7323 15.009 10.522 14.7495 10.522Z" fill="black"/>
<path d="M14.2172 18.5073C14.2172 18.2479 14.0069 18.0376 13.7474 18.0376H11.2422C10.9828 18.0376 10.7725 18.2479 10.7725 18.5073C10.7725 18.7667 10.9828 18.9771 11.2422 18.9771H13.7474C14.0068 18.9771 14.2172 18.7667 14.2172 18.5073Z" fill="black"/>
<path d="M14.7495 16.0332H11.2422C10.9828 16.0332 10.7725 16.2435 10.7725 16.5029C10.7725 16.7623 10.9828 16.9727 11.2422 16.9727H14.7495C15.0089 16.9727 15.2193 16.7624 15.2193 16.5029C15.2193 16.2435 15.009 16.0332 14.7495 16.0332Z" fill="black"/>
<path d="M19.7286 7.48439C19.7286 7.225 19.5183 7.01465 19.2589 7.01465H11.2422C10.9828 7.01465 10.7725 7.22494 10.7725 7.48439C10.7725 7.74379 10.9828 7.95414 11.2422 7.95414H19.2589C19.5183 7.95408 19.7286 7.74379 19.7286 7.48439Z" fill="black"/>
<path d="M11.2422 5.94975H17.2547C17.5141 5.94975 17.7245 5.73945 17.7245 5.48C17.7245 5.22061 17.5142 5.01025 17.2547 5.01025H11.2422C10.9828 5.01025 10.7725 5.22055 10.7725 5.48C10.7725 5.73945 10.9828 5.94975 11.2422 5.94975Z" fill="black"/>
<path d="M7.73481 16.4717C7.99421 16.4717 8.20456 16.2614 8.20456 16.002C8.20456 15.7426 7.99427 15.5322 7.73481 15.5322C6.64696 15.5322 5.76196 16.4173 5.76196 17.5051C5.76196 18.5929 6.64702 19.4779 7.73481 19.4779C8.82267 19.4779 9.70767 18.5929 9.70767 17.5051C9.70767 17.2457 9.49737 17.0353 9.23792 17.0353C8.97853 17.0353 8.76817 17.2456 8.76817 17.5051C8.76817 18.0749 8.30458 18.5385 7.73476 18.5385C7.16493 18.5385 6.70134 18.0749 6.70134 17.5051C6.70146 16.9353 7.16505 16.4717 7.73481 16.4717Z" fill="black"/>
<path d="M12.7453 23.048H4.22755C3.934 23.048 3.69517 22.8092 3.69517 22.5156V1.47182C3.69517 1.17826 3.934 0.939434 4.22755 0.939434H21.263C21.5566 0.939434 21.7954 1.17826 21.7954 1.47182V17.0043C21.7954 17.2637 22.0057 17.474 22.2652 17.474C22.5246 17.474 22.7349 17.2637 22.7349 17.0043V1.47182C22.7349 0.660234 22.0746 0 21.263 0H4.22755C3.41603 0 2.75574 0.660234 2.75574 1.47182V22.5156C2.75574 23.3272 3.41597 23.9875 4.22755 23.9875H12.7453C13.0047 23.9875 13.2151 23.7772 13.2151 23.5177C13.2151 23.2583 13.0047 23.048 12.7453 23.048Z" fill="black"/>
<path d="M25.698 19.0483C25.2614 19.0048 24.825 19.1285 24.4797 19.3907C24.2046 18.9291 23.7355 18.6016 23.1927 18.5473C22.756 18.5038 22.3197 18.6275 21.9744 18.8897C21.6993 18.4281 21.2302 18.1006 20.6875 18.0462C20.3541 18.0129 20.0212 18.0772 19.7286 18.2261V12.2441C19.7286 11.7584 19.522 11.2928 19.1616 10.9668C18.8015 10.641 18.3163 10.4819 17.8303 10.5306C16.9632 10.6174 16.2839 11.4015 16.2839 12.3155V18.3126L14.9031 19.6934C14.1693 20.4272 13.8732 21.4683 14.1109 22.4784L15.1592 26.9337C15.5839 28.739 17.1759 29.9998 19.0305 29.9998H23.2672C25.4601 29.9998 27.2443 28.2158 27.2443 26.0228V20.8333C27.2443 19.9192 26.5651 19.1351 25.698 19.0483ZM26.3048 26.0228C26.3048 27.6977 24.9422 29.0603 23.2673 29.0603H19.0305C17.614 29.0603 16.3981 28.0973 16.0736 26.7185L15.0253 22.2632C14.8627 21.572 15.0654 20.8597 15.5674 20.3576L16.2839 19.6411V21.2628C16.2839 21.5222 16.4942 21.7326 16.7537 21.7326C17.0131 21.7326 17.2234 21.5223 17.2234 21.2628V12.3155C17.2234 11.8781 17.5311 11.5046 17.924 11.4654C18.1496 11.4427 18.3654 11.5131 18.5314 11.6634C18.6952 11.8117 18.7892 12.0234 18.7892 12.2442V20.5114C18.7892 20.7708 18.9995 20.9811 19.259 20.9811C19.5184 20.9811 19.7287 20.7708 19.7287 20.5114V19.7598C19.7287 19.539 19.8226 19.3273 19.9866 19.179C20.1526 19.0288 20.3683 18.9583 20.594 18.981C20.9868 19.0203 21.2945 19.3938 21.2945 19.8312V21.0123C21.2945 21.2717 21.5048 21.482 21.7643 21.482C22.0237 21.482 22.234 21.2718 22.234 21.0123V20.2607C22.234 20.0399 22.3279 19.8282 22.4919 19.6799C22.6579 19.5297 22.8737 19.4593 23.0993 19.4819C23.4921 19.5213 23.7998 19.8947 23.7998 20.3321V21.5133C23.7998 21.7727 24.0101 21.983 24.2696 21.983C24.529 21.983 24.7393 21.7727 24.7393 21.5133V20.7617C24.7393 20.5409 24.8332 20.3292 24.9972 20.1809C25.1632 20.0307 25.3788 19.9602 25.6046 19.983C25.9974 20.0222 26.3051 20.3957 26.3051 20.8331V26.0228H26.3048Z" fill="black"/>
</g>
<defs>
<clipPath id="clip0_73_172">
<rect width="30" height="30" fill="white"/>
</clipPath>
</defs>
</svg>
