<svg width="30" height="30" viewBox="0 0 30 30" fill="none" xmlns="http://www.w3.org/2000/svg">
<g clip-path="url(#clip0_73_344)">
<path d="M28.9796 24.9227L28.0793 24.3227L21.8633 20.1788L19.541 21.8286L17.9742 22.9435C17.4803 22.6633 16.9736 22.3427 16.4619 21.9885C15.578 21.3773 14.6775 20.6675 13.7958 19.8926C13.2228 19.3905 12.6571 18.8599 12.1094 18.3123C10.2309 16.4338 8.55797 14.3499 7.47826 12.4476L8.5916 10.8807L10.2429 8.5584L6.09902 2.3423L6.09979 2.34154L5.49902 1.44189L3.12668 2.56566L0.941895 7.8715L2.33174 10.2342C2.37059 10.2999 2.40943 10.365 2.44904 10.4315C2.49984 10.5167 2.55141 10.6026 2.60373 10.6878C5.06795 14.7503 8.59248 18.8741 12.4764 22.362C13.3312 23.1294 14.2032 23.8661 15.0848 24.5648C16.7018 25.8447 18.3524 26.9962 19.9902 27.9727C20.0559 28.0123 20.1217 28.052 20.1875 28.09L22.5502 29.4798L27.8561 27.295L28.9796 24.9227Z" fill="#70E5CF"/>
<path d="M21.7849 28.0091C21.7194 27.971 21.6538 27.9316 21.5883 27.8921C21.4691 27.8213 21.3499 27.7469 21.23 27.6738C20.4724 27.2112 19.7133 26.7114 18.9565 26.1802C18.1997 25.6491 17.445 25.0852 16.6979 24.4945C15.8188 23.7979 14.9496 23.0635 14.0974 22.2985C10.2252 18.8211 6.71133 14.7098 4.25461 10.6596C4.20246 10.5747 4.15102 10.489 4.10039 10.4041C4.0609 10.3378 4.02217 10.273 3.98344 10.2075L2.59787 7.85199L4.51828 3.18799L4.77604 2.56221L5.28557 2.32086L5.94668 2.00773L5.56881 1.44189L3.71309 2.32092L3.20355 2.56227L2.9458 3.18805L1.02539 7.85205L2.41096 10.2075C2.44969 10.2731 2.48842 10.3379 2.52791 10.4042C2.57854 10.4891 2.62998 10.5747 2.68213 10.6596C5.13891 14.7098 8.65271 18.821 12.5249 22.2984C13.3771 23.0634 14.2464 23.798 15.1254 24.4944C15.8726 25.0852 16.6271 25.6491 17.384 26.1802C18.1408 26.7113 18.8999 27.2111 19.6575 27.6738C19.7774 27.7467 19.8966 27.8213 20.0158 27.892C20.0814 27.9315 20.1469 27.971 20.2124 28.009L22.5679 29.3946L23.4928 29.0137L21.7849 28.0091Z" fill="#35D8B9"/>
<path d="M17.7835 2.21285C17.7835 0.992695 16.7908 0 15.5708 0C14.3506 0 13.3579 0.992695 13.3579 2.21285C13.3579 2.5002 13.5908 2.73311 13.8782 2.73311C14.1656 2.73311 14.3984 2.50014 14.3984 2.21285C14.3984 1.56645 14.9243 1.04057 15.5707 1.04057C16.217 1.04057 16.7429 1.56645 16.7429 2.21285C16.7429 3.16529 16.372 4.06078 15.6985 4.73432L13.5102 6.92256C13.3613 7.07133 13.3169 7.29516 13.3974 7.48957C13.4779 7.68393 13.6677 7.81072 13.8781 7.81072H17.2631C17.5505 7.81072 17.7834 7.57775 17.7834 7.29047C17.7834 7.00318 17.5505 6.77021 17.2631 6.77021H15.1341L16.4343 5.47008C17.3044 4.60002 17.7835 3.4432 17.7835 2.21285Z" fill="#F95428"/>
<path d="M20.7103 7.29055C20.7103 7.57789 20.9431 7.8108 21.2305 7.8108C21.5179 7.8108 21.7508 7.57783 21.7508 7.29055V5.59004H22.4512C22.7386 5.59004 22.9715 5.35707 22.9715 5.06979C22.9715 4.78244 22.7386 4.54953 22.4512 4.54953H21.7508V0.520333C21.7508 0.286251 21.5945 0.080997 21.3688 0.0187705C21.143 -0.0434561 20.9038 0.0526376 20.7838 0.253614L18.067 4.80301C17.971 4.96373 17.9688 5.16371 18.0613 5.32654C18.1537 5.48938 18.3264 5.58998 18.5137 5.58998H20.7101V7.29049H20.7103V7.29055ZM20.7103 2.40629V4.54942H19.4305L20.7103 2.40629Z" fill="#F95428"/>
<path d="M28.5559 9.6626C28.4714 9.47703 28.2863 9.35791 28.0825 9.35791H24.1933C23.9059 9.35791 23.6731 9.59088 23.6731 9.87816C23.6731 10.1654 23.9059 10.3984 24.1933 10.3984H26.94L25.962 11.5222C24.8927 12.7508 24.3038 14.3247 24.3038 15.9536V16.6484C24.3038 16.9357 24.5367 17.1686 24.8241 17.1686C25.1115 17.1686 25.3443 16.9357 25.3443 16.6484V15.9536C25.3443 14.5757 25.8425 13.2446 26.7469 12.2053L28.4749 10.2197C28.6087 10.066 28.6404 9.84816 28.5559 9.6626Z" fill="#F95428"/>
<path d="M26.4041 5.08062C26.2008 4.87742 25.8714 4.87742 25.6682 5.08062L18.6829 12.0659C18.4797 12.2691 18.4797 12.5985 18.6829 12.8016C18.7845 12.9032 18.9178 12.954 19.0508 12.954C19.184 12.954 19.3171 12.9032 19.4187 12.8016L26.4041 5.81633C26.6071 5.61318 26.6071 5.28377 26.4041 5.08062Z" fill="#F95428"/>
<path d="M29.3526 24.4745L22.2132 19.7155C22.0338 19.5958 21.7992 19.5993 21.6232 19.7242L17.9944 22.3036C16.2601 21.2745 14.3239 19.7246 12.5069 17.9077C10.6905 16.0912 9.14056 14.1549 8.11107 12.4203L10.691 8.7922C10.8161 8.61636 10.8196 8.38158 10.6999 8.20205L6.55863 1.9904C6.55365 1.98179 6.54837 1.97335 6.54275 1.96503L5.9407 1.06263C5.79744 0.847944 5.51865 0.770717 5.28521 0.881167L2.90484 2.00822C2.78783 2.06365 2.69572 2.16068 2.64638 2.28033L0.454683 7.60357C0.392691 7.75415 0.40482 7.92507 0.487437 8.06552L1.88044 10.4332C1.91982 10.5011 1.95996 10.5682 2.00062 10.636C6.03498 17.4016 13.0134 24.38 19.7777 28.4135C19.8456 28.4543 19.9138 28.4951 19.9798 28.5336L22.3501 29.928C22.4311 29.9757 22.5222 29.9999 22.6138 29.9999C22.681 29.9999 22.7483 29.987 22.8119 29.9607L28.1346 27.7684C28.2543 27.7191 28.3512 27.627 28.4066 27.5101L29.5344 25.1302C29.6449 24.8969 29.5675 24.6177 29.3526 24.4745ZM5.32447 2.01384L5.6608 2.51781C5.66572 2.52624 5.67099 2.53468 5.67656 2.54294L9.63545 8.4813L8.61556 9.91568L3.8898 2.69318L5.32447 2.01384ZM22.6546 28.9001L20.5054 27.6357C20.4412 27.5983 20.3771 27.5598 20.3116 27.5206C13.6835 23.5681 6.84673 16.7313 2.89418 10.1031C2.89394 10.1027 2.89377 10.1023 2.89347 10.1019C2.85509 10.038 2.81724 9.97457 2.77857 9.90806L1.51523 7.76072L3.23267 3.58949L7.96781 10.8263L7.06898 12.0903C6.95191 12.2551 6.94072 12.4728 7.04056 12.6486C8.11025 14.5335 9.79031 16.6625 11.7712 18.6435C13.7527 20.6249 15.8818 22.305 17.7662 23.3742C17.942 23.474 18.1597 23.4628 18.3245 23.3457L19.5885 22.4471L26.8254 27.1821L22.6546 28.9001ZM27.7218 26.5251L20.4994 21.7997L21.9339 20.7799L28.4013 25.0909L27.7218 26.5251Z" fill="#333333"/>
</g>
<defs>
<clipPath id="clip0_73_344">
<rect width="30" height="30" fill="white"/>
</clipPath>
</defs>
</svg>
