<svg width="30" height="30" viewBox="0 0 30 30" fill="none" xmlns="http://www.w3.org/2000/svg">
<path d="M26.1438 10.9499L19.3938 4.19992C18.2438 3.0499 16.3438 3.0499 15.1438 4.19992L13.3938 5.99992C13.7938 6.74992 13.9938 7.59994 13.9938 8.49994C13.9938 9.39994 13.7938 10.1999 13.3938 10.9499L19.7438 17.2999C20.8938 18.4499 22.7938 18.4499 23.9938 17.2999L26.0938 15.1999C27.2938 13.9999 27.2938 12.0999 26.1438 10.9499Z" fill="#1CD759"/>
<path d="M18.9938 6.5C18.9938 7.35002 18.3438 8 17.4938 8C16.6438 8 15.9938 7.35002 15.9938 6.5C15.9938 5.64998 16.6438 5 17.4938 5C18.3438 5 18.9938 5.65004 18.9938 6.5Z" fill="#FFDD09"/>
<path d="M24.6938 13.75L22.5938 15.85C22.1937 16.25 21.5937 16.25 21.1938 15.85L17.6438 12.3C17.2437 11.9 17.2437 11.3 17.6438 10.9L19.7438 8.80001C20.1438 8.4 20.7438 8.4 21.1437 8.80001L24.6938 12.35C25.0938 12.75 25.0938 13.35 24.6938 13.75Z" fill="#FFDD09"/>
<path d="M8.49379 13.9999C7.59379 13.9999 6.74377 13.7999 5.99377 13.3999V18.4999L6.99379 19.4999L5.99377 20.4999L6.99379 21.5L5.99377 22.4999L6.99379 23.4999L5.99377 24.5L6.99379 25.4999L5.99377 26.4999L6.99379 27.5L5.99377 28.4999L6.99379 29.4999H8.99377V13.9499C8.84377 13.9999 8.64379 13.9999 8.49379 13.9999Z" fill="#FFDD09"/>
<path d="M8.99377 13.9499V29.4999L10.9938 26.4999V13.3999C10.3938 13.6999 9.69379 13.8999 8.99377 13.9499Z" fill="#FD9808"/>
<path d="M13.9938 8.50002C13.9938 11.55 11.5438 14 8.49379 14C5.44376 14 2.99377 11.5501 2.99377 8.50002C2.99377 5.44998 5.44381 3 8.49379 3C11.5438 3 13.9938 5.44998 13.9938 8.50002Z" fill="#FFDD09"/>
<path d="M9.99377 6.5C9.99377 7.35002 9.34379 8 8.49377 8C7.64376 8 6.99377 7.35002 6.99377 6.5C6.99377 5.64998 7.64376 5 8.49377 5C9.34379 5 9.99377 5.65004 9.99377 6.5Z" fill="#FD9808"/>
<path d="M8.49377 14.5C5.19377 14.5 2.49377 11.8 2.49377 8.5C2.49377 5.2 5.19377 2.5 8.49377 2.5C11.7938 2.5 14.4938 5.2 14.4938 8.5C14.4938 11.8 11.7938 14.5 8.49377 14.5ZM8.49377 3.49996C5.74379 3.49996 3.49379 5.74996 3.49379 8.49994C3.49379 11.2499 5.74379 13.4999 8.49377 13.4999C11.2438 13.4999 13.4938 11.2499 13.4938 8.49994C13.4938 5.74996 11.2438 3.49996 8.49377 3.49996Z" fill="black"/>
<path d="M8.49376 8.50002C7.39377 8.50002 6.49377 7.60002 6.49377 6.50004C6.49377 5.40006 7.39377 4.5 8.49376 4.5C9.59374 4.5 10.4937 5.4 10.4937 6.49998C10.4937 7.59996 9.59374 8.50002 8.49376 8.50002ZM8.49376 5.50002C7.94374 5.50002 7.49374 5.95002 7.49374 6.50004C7.49374 7.05006 7.94374 7.5 8.49376 7.5C9.04377 7.5 9.49377 7.05 9.49377 6.49998C9.49377 5.94996 9.04377 5.50002 8.49376 5.50002Z" fill="black"/>
<path d="M8.99375 29.9998C8.94377 29.9998 8.89373 29.9998 8.84375 29.9998C8.64377 29.9499 8.49377 29.7498 8.49377 29.4999V13.9998C8.49377 13.7498 8.69375 13.5498 8.94377 13.4998C9.59375 13.4499 10.1938 13.2498 10.7438 12.9498C10.8938 12.8498 11.0938 12.8998 11.2438 12.9498C11.3938 13.0498 11.4938 13.1998 11.4938 13.3998V26.4998C11.4938 26.5998 11.4438 26.6998 11.3938 26.7998L9.39377 29.7998C9.34379 29.8998 9.14375 29.9998 8.99375 29.9998ZM9.49379 14.3998V27.8499L10.4938 26.3499V14.1498C10.1938 14.2498 9.84377 14.3499 9.49379 14.3998Z" fill="black"/>
<path d="M8.99375 30H6.99377C6.84377 30 6.74375 29.95 6.64379 29.85L5.64377 28.85C5.44379 28.65 5.44379 28.35 5.64377 28.1499L6.29375 27.5L5.64377 26.85C5.44379 26.65 5.44379 26.35 5.64377 26.15L6.29375 25.5L5.64377 24.85C5.54375 24.75 5.49377 24.65 5.49377 24.5C5.49377 24.35 5.54375 24.25 5.64377 24.15L6.29375 23.5001L5.64377 22.85C5.44379 22.65 5.44379 22.35 5.64377 22.1499L6.29375 21.5L5.64377 20.85C5.44379 20.65 5.44379 20.35 5.64377 20.15L6.29375 19.5L5.64377 18.85C5.54375 18.75 5.49377 18.65 5.49377 18.5V13.4C5.49377 13.25 5.59379 13.05 5.74379 12.95C5.89379 12.85 6.09377 12.85 6.24377 12.95C7.09379 13.4 8.04377 13.55 8.99375 13.5C9.14375 13.5 9.29376 13.55 9.39377 13.65C9.49379 13.7501 9.54377 13.9001 9.54377 14V29.5C9.49379 29.8 9.29375 30 8.99375 30ZM7.19375 29H8.49377V14.5C7.79376 14.5 7.14377 14.4 6.49379 14.15V18.3L7.34381 19.1501C7.44383 19.2501 7.49381 19.35 7.49381 19.5C7.49381 19.65 7.44383 19.7501 7.34381 19.85L6.69383 20.5L7.34381 21.15C7.54379 21.35 7.54379 21.65 7.34381 21.85L6.69377 22.5L7.34375 23.15C7.54374 23.3499 7.54374 23.6499 7.34375 23.85L6.69377 24.5L7.34375 25.1499C7.44377 25.25 7.49375 25.3499 7.49375 25.4999C7.49375 25.6499 7.44377 25.7499 7.34375 25.8499L6.69377 26.4999L7.34375 27.1499C7.54374 27.3498 7.54374 27.6498 7.34375 27.8499L6.69377 28.5L7.19375 29Z" fill="black"/>
<path d="M17.4938 8.50002C16.3938 8.50002 15.4938 7.60002 15.4938 6.50004C15.4938 5.40006 16.3938 4.5 17.4938 4.5C18.5937 4.5 19.4937 5.4 19.4937 6.49998C19.4937 7.59996 18.5937 8.50002 17.4938 8.50002ZM17.4938 5.50002C16.9437 5.50002 16.4937 5.95002 16.4937 6.50004C16.4937 7.05006 16.9437 7.5 17.4938 7.5C18.0438 7.5 18.4938 7.05 18.4938 6.49998C18.4938 5.94996 18.0438 5.50002 17.4938 5.50002Z" fill="black"/>
<path d="M17.4938 6C17.1938 6 16.9938 5.80002 16.9938 5.50002C16.9938 3.35004 15.7438 1.00002 12.9938 1.00002C10.2437 1.00002 8.99374 3.35004 8.99374 5.50002C8.99374 5.80002 8.79376 6 8.49376 6C8.19376 6 7.99377 5.80002 7.99377 5.50002C7.99377 2.74998 9.69375 0 12.9938 0C16.2938 0 17.9937 2.74998 17.9937 5.50002C17.9937 5.80002 17.7938 6 17.4938 6Z" fill="black"/>
<path d="M21.8938 16.6501C21.4938 16.6501 21.1438 16.5001 20.8438 16.2001L17.2937 12.6501C16.9937 12.3501 16.8438 12.0001 16.8438 11.6001C16.8438 11.2001 16.9937 10.8001 17.2937 10.5501L19.3937 8.45011C19.9438 7.90009 20.9437 7.90009 21.4937 8.45011L25.0438 12.0001C25.3438 12.3001 25.4938 12.6501 25.4938 13.0501C25.4938 13.4502 25.3438 13.8501 25.0438 14.1001L22.9438 16.2001C22.6438 16.5001 22.2438 16.6501 21.8938 16.6501ZM20.4438 9.00013C20.2938 9.00013 20.1938 9.05011 20.0938 9.15013L17.9938 11.3001C17.8938 11.4001 17.8438 11.5001 17.8438 11.6501C17.8438 11.8001 17.8938 11.9001 17.9938 12.0001L21.5438 15.5501C21.7438 15.7501 22.0438 15.7501 22.2439 15.5501L24.3439 13.4501C24.4439 13.3501 24.4939 13.2501 24.4939 13.1001C24.4939 12.9501 24.4439 12.8501 24.3439 12.7501L20.7938 9.20011C20.7438 9.05011 20.5938 9.00013 20.4438 9.00013Z" fill="black"/>
<path d="M22.2438 13.8998C22.0938 13.8998 21.9937 13.8498 21.8938 13.7498L19.7938 11.6498C19.5938 11.4498 19.5938 11.1498 19.7938 10.9498C19.9938 10.7498 20.2938 10.7498 20.4938 10.9498L22.5938 13.0498C22.7938 13.2498 22.7938 13.5498 22.5938 13.7498C22.4937 13.8498 22.3437 13.8998 22.2438 13.8998Z" fill="black"/>
<path d="M21.8938 18.6501C20.9938 18.6501 20.0938 18.3001 19.4438 17.6501L13.0438 11.3001C12.8938 11.1501 12.8438 10.9001 12.9438 10.7001C13.2937 10.0001 13.4938 9.25008 13.4938 8.4501C13.4938 7.65012 13.2938 6.90012 12.9438 6.15012C12.8437 5.95014 12.8938 5.70012 13.0438 5.55012L14.7938 3.8001C16.1438 2.4501 18.3938 2.4501 19.7438 3.8001L26.4938 10.5501C27.8438 11.9001 27.8438 14.1501 26.4938 15.5001L24.3938 17.6001C23.6938 18.3501 22.7938 18.6501 21.8938 18.6501ZM13.9938 10.8501L20.0938 16.9501C21.0438 17.9001 22.6438 17.9001 23.6438 16.9501L25.7438 14.8501C26.1938 14.4001 26.4938 13.7501 26.4938 13.1001C26.4938 12.4501 26.2438 11.8001 25.7438 11.3501L19.0438 4.5501C18.0938 3.60012 16.4938 3.60012 15.4938 4.5501L13.9938 6.0501C14.3437 6.8001 14.4937 7.60008 14.4937 8.4501C14.4938 9.30012 14.3438 10.1001 13.9938 10.8501Z" fill="black"/>
</svg>
