<svg width="30" height="30" viewBox="0 0 30 30" fill="none" xmlns="http://www.w3.org/2000/svg">
<g clip-path="url(#clip0_73_72)">
<path d="M29.1877 23.0021C28.1333 21.0093 24.2438 18.7299 24.2438 18.7299C23.3638 18.2282 22.3021 18.1721 21.7999 19.0666C21.7999 19.0666 20.5366 20.5821 20.2149 20.7999C18.7466 21.7949 17.3866 21.7566 16.0138 20.3832L12.8233 17.1927L9.6327 14.0021C8.25937 12.6288 8.22104 11.2693 9.21604 9.80101C9.43381 9.47934 10.9494 8.21601 10.9494 8.21601C11.8433 7.71378 11.7877 6.65212 11.286 5.77212C11.286 5.77212 9.00659 1.88267 7.01381 0.828229C6.16604 0.37934 5.12492 0.536007 4.44659 1.21434L3.03604 2.62267C-1.43341 7.09212 0.767147 12.1388 5.23659 16.6082L9.32159 20.6932L13.4066 24.7782C17.876 29.2477 22.9227 31.4488 27.3921 26.9788L28.8016 25.5693C29.4794 24.891 29.636 23.8499 29.1877 23.0021Z" fill="#69BC45"/>
<path d="M29.6783 22.7428C28.5628 20.6339 24.6889 18.3472 24.5189 18.2472C24.0211 17.9639 23.5016 17.8139 23.0155 17.8139C22.2928 17.8139 21.7011 18.145 21.3428 18.7472C20.7761 19.425 20.0728 20.2172 19.9028 20.34C18.5828 21.2355 17.5489 21.1339 16.4061 19.9905L10.0244 13.6089C8.88887 12.4728 8.78442 11.4266 9.67331 10.1144C9.79776 9.9422 10.59 9.23942 11.2683 8.67164C11.7005 8.41442 11.9972 8.03276 12.1266 7.56331C12.3 6.93998 12.1722 6.20553 11.7644 5.49053C11.6683 5.32609 9.38109 1.45164 7.27276 0.336644C6.87942 0.128311 6.43609 0.0183105 5.99165 0.0183105C5.25942 0.0183105 4.57054 0.303866 4.05331 0.821088L2.64331 2.23053C0.413313 4.45998 -0.393909 6.9872 0.242757 9.74164C0.773869 12.0372 2.32165 14.48 4.84387 17.0016L13.0133 25.1711C16.2055 28.3633 19.2489 29.9822 22.0589 29.9822C22.0589 29.9822 22.0589 29.9822 22.0594 29.9822C24.1261 29.9822 26.0528 29.1039 27.7844 27.3722L29.1939 25.9628C30.05 25.1066 30.245 23.8128 29.6783 22.7428ZM28.4083 25.1766L26.9989 26.5861C25.4828 28.1022 23.8211 28.8705 22.0594 28.8705C19.5544 28.8705 16.775 27.3611 13.7989 24.385L5.62942 16.2155C3.25665 13.8428 1.80831 11.58 1.32498 9.49053C0.772202 7.10164 1.46054 4.98387 3.42831 3.01609L4.83776 1.60664C5.14609 1.29887 5.55554 1.12887 5.99109 1.12887C6.25554 1.12887 6.51831 1.19442 6.75276 1.31831C8.58276 2.28664 10.7839 6.01498 10.8028 6.04664C11.0522 6.48387 11.1472 6.93998 11.0566 7.26664C11.0011 7.46664 10.8772 7.61831 10.6772 7.73053L10.5933 7.78831C10.1194 8.18331 8.9922 9.13998 8.75554 9.48887C8.41553 9.99109 8.18998 10.485 8.0722 10.97C7.6772 10.1822 7.35776 9.26942 7.25276 8.25831C7.22109 7.95387 6.94942 7.74109 6.64276 7.76275C6.33776 7.79498 6.11553 8.06775 6.1472 8.37331C6.54831 12.2361 9.5522 14.7505 9.67998 14.8555C9.69387 14.8672 9.71109 14.8716 9.72553 14.8816L15.6205 20.7761C15.645 20.8005 15.6705 20.8222 15.695 20.8461C15.715 20.8755 15.7278 20.9078 15.7539 20.9333C15.8589 21.0372 18.3672 23.4705 22.1978 23.8683C22.2172 23.87 22.2366 23.8711 22.2555 23.8711C22.5366 23.8711 22.7778 23.6583 22.8078 23.3733C22.8394 23.0678 22.6178 22.795 22.3122 22.7628C21.1389 22.6411 20.0994 22.2972 19.2328 21.8983C19.6561 21.77 20.0872 21.5572 20.5261 21.26C20.875 21.0239 21.8316 19.8961 22.2266 19.4222L22.2844 19.3383C22.4405 19.0605 22.68 18.925 23.0161 18.925C23.305 18.925 23.6433 19.0278 23.9633 19.2094C25.0072 19.8216 27.8922 21.7422 28.6972 23.2628C29.0333 23.8989 28.9172 24.6678 28.4083 25.1766Z" fill="#449E46"/>
<path d="M6.66667 28.8712C10.3486 28.8712 13.3333 25.8864 13.3333 22.2045C13.3333 18.5226 10.3486 15.5378 6.66667 15.5378C2.98477 15.5378 0 18.5226 0 22.2045C0 25.8864 2.98477 28.8712 6.66667 28.8712Z" fill="#26B999"/>
<path d="M10.3173 18.9706C10.0645 18.7951 9.71895 18.8573 9.54395 19.1095L6.43506 23.5762L4.24117 21.7751C4.0045 21.5801 3.65395 21.6151 3.4595 21.8523C3.2645 22.0895 3.29895 22.4395 3.53673 22.6339L6.19562 24.8167C6.29562 24.8984 6.42006 24.9428 6.54784 24.9428C6.57284 24.9428 6.59839 24.9412 6.62395 24.9378C6.77728 24.9162 6.91506 24.8323 7.00395 24.7051L10.4562 19.7445C10.6312 19.4923 10.5689 19.1456 10.3173 18.9706Z" fill="white"/>
</g>
<defs>
<clipPath id="clip0_73_72">
<rect width="30" height="30" fill="white"/>
</clipPath>
</defs>
</svg>
