<svg width="30" height="30" viewBox="0 0 30 30" fill="none" xmlns="http://www.w3.org/2000/svg">
<g clip-path="url(#clip0_73_107)">
<path d="M21.995 27.5018C21.995 28.601 21.0956 29.5003 19.9964 29.5003H10.0035C8.90425 29.5003 8.00488 28.601 8.00488 27.5018V17.0092C8.00488 16.9092 8.00488 16.8093 8.00488 16.6594C8.10483 15.3104 9.0042 14.2112 10.2033 13.6116C12.0021 12.8122 15.7494 11.0135 17.3483 9.96422C18.4975 9.26469 19.197 7.8657 18.8972 6.36676C18.6474 4.96777 17.5482 3.81856 16.1492 3.56872C13.9507 3.16898 12.0021 4.86782 12.0021 7.01628C12.0021 7.91565 11.1527 8.66512 10.2033 8.46528C9.50382 8.36533 9.0042 7.66586 9.0042 6.86639C9.10414 3.21899 12.2519 0.271053 15.9993 0.520896C19.2969 0.770739 21.995 3.86851 21.995 7.16618V27.5018H21.995Z" fill="#FFDD09"/>
<path d="M19.9964 21.6058C19.9964 18.8578 17.748 16.6094 15 16.6094C12.252 16.6094 10.0035 18.8578 10.0035 21.6058C10.0035 24.3539 12.252 26.6023 15 26.6023C17.748 26.6023 19.9964 24.3539 19.9964 21.6058Z" fill="#33A9F8"/>
<path d="M18.4975 21.8056C18.4975 19.1575 16.5988 17.009 14.2505 17.009C11.9022 17.009 10.0035 19.1575 10.0035 21.8056C10.0035 24.4538 11.9022 26.6023 14.2505 26.6023C16.5988 26.6023 18.4975 24.4538 18.4975 21.8056Z" fill="#54C9FD"/>
<path d="M15 3.5685C15.0999 3.51856 15.2498 3.51856 15.3497 3.51856C15.2498 3.5185 15.0999 3.5185 15 3.5685Z" fill="black"/>
<path d="M19.9964 29.9998H10.0035C8.60451 29.9998 7.50525 28.9006 7.50525 27.5015V17.0089C7.50525 16.909 7.50525 16.7591 7.50525 16.6592C7.6052 15.2102 8.55451 13.8612 10.0035 13.2116C11.6024 12.4622 15.4996 10.6135 17.0985 9.56423C18.1477 8.91471 18.6474 7.71556 18.4475 6.4664C18.2477 5.26725 17.2983 4.31794 16.0992 4.0681C15.1998 3.86826 14.3004 4.11804 13.6009 4.66768C12.9014 5.26725 12.5017 6.11667 12.5017 7.01603C12.5017 7.61561 12.2519 8.16524 11.8022 8.56492C11.3525 8.96466 10.7529 9.11455 10.1533 9.0146C9.15402 8.81476 8.5045 7.9154 8.5045 6.86614C8.55445 4.96746 9.40387 3.11879 10.8029 1.81969C12.2519 0.520588 14.1005 -0.128934 16.0491 0.0209603C19.5467 0.320748 22.4946 3.56847 22.4946 7.21587V27.5015C22.4947 28.9006 21.3954 29.9998 19.9964 29.9998ZM15.4996 3.01884C15.7494 3.01884 16.0492 3.06879 16.299 3.11879C17.8979 3.41858 19.147 4.71768 19.4468 6.31651C19.7466 7.9154 19.047 9.51423 17.648 10.4136C16.0492 11.4129 12.4517 13.1616 10.4531 14.111C9.35392 14.6106 8.6544 15.6099 8.55445 16.7591C8.55445 16.8591 8.55445 16.959 8.55445 17.0589V27.5515C8.55445 28.4009 9.20397 29.0505 10.0534 29.0505H20.0463C20.8958 29.0505 21.5453 28.4009 21.5453 27.5515V7.21587C21.4953 4.0681 18.9471 1.27006 15.9493 1.02027C14.3004 0.920324 12.7015 1.46996 11.4524 2.56916C10.2533 3.71837 9.55376 5.21731 9.50382 6.91609C9.50382 7.46572 9.85355 7.9154 10.3032 8.01529C10.603 8.06523 10.9028 8.01529 11.1527 7.81545C11.3525 7.61561 11.5024 7.31582 11.5024 7.01603C11.5024 5.81688 12.052 4.71768 12.9514 3.9182C13.7008 3.31863 14.6002 3.01884 15.4996 3.01884Z" fill="black"/>
<path d="M17.4981 20.0071H12.5017C12.2019 20.0071 12.0021 19.8072 12.0021 19.5074C12.0021 19.2077 12.2019 19.0078 12.5017 19.0078H17.4981C17.7979 19.0078 17.9978 19.2077 17.9978 19.5074C17.9978 19.8072 17.7979 20.0071 17.4981 20.0071Z" fill="black"/>
<path d="M17.9979 22.0056H15.4996C15.1998 22.0056 15 21.8058 15 21.506C15 21.2062 15.1998 21.0063 15.4996 21.0063H17.9979C18.2977 21.0063 18.4975 21.2062 18.4975 21.506C18.4975 21.8057 18.2977 22.0056 17.9979 22.0056Z" fill="black"/>
<path d="M13.501 22.0056H12.0021C11.7023 22.0056 11.5024 21.8058 11.5024 21.506C11.5024 21.2062 11.7023 21.0063 12.0021 21.0063H13.501C13.8008 21.0063 14.0006 21.2062 14.0006 21.506C14.0006 21.8057 13.8008 22.0056 13.501 22.0056Z" fill="black"/>
<path d="M15 24.0041H12.5017C12.2019 24.0041 12.0021 23.8043 12.0021 23.5045C12.0021 23.2047 12.2019 23.0049 12.5017 23.0049H15C15.2997 23.0049 15.4996 23.2047 15.4996 23.5045C15.4996 23.8043 15.2997 24.0041 15 24.0041Z" fill="black"/>
<path d="M17.4982 24.0041H16.9985C16.6987 24.0041 16.4989 23.8043 16.4989 23.5045C16.4989 23.2047 16.6987 23.0049 16.9985 23.0049H17.4982C17.7979 23.0049 17.9978 23.2047 17.9978 23.5045C17.9978 23.8043 17.7979 24.0041 17.4982 24.0041Z" fill="black"/>
<path d="M14.9999 27.1019C11.9521 27.1019 9.50378 24.6536 9.50378 21.6058C9.50378 18.5579 11.952 16.1096 14.9999 16.1096C18.0478 16.1096 20.4961 18.5579 20.4961 21.6058C20.4961 24.6536 18.0477 27.1019 14.9999 27.1019ZM14.9999 17.1089C12.5017 17.1089 10.5031 19.1075 10.5031 21.6058C10.5031 24.104 12.5017 26.1026 14.9999 26.1026C17.4982 26.1026 19.4967 24.104 19.4967 21.6058C19.4967 19.1075 17.4982 17.1089 14.9999 17.1089Z" fill="black"/>
</g>
<defs>
<clipPath id="clip0_73_107">
<rect width="30" height="30" fill="white"/>
</clipPath>
</defs>
</svg>
