<svg width="243" height="237" viewBox="0 0 243 237" fill="none" xmlns="http://www.w3.org/2000/svg">
<path d="M41.2434 7L44.6111 17.3647H55.5093L46.6925 23.7705L50.0602 34.1353L41.2434 27.7295L32.4266 34.1353L35.7943 23.7705L26.9776 17.3647H37.8757L41.2434 7Z" fill="white"/>
<path d="M201.243 7L204.611 17.3647H215.509L206.692 23.7705L210.06 34.1353L201.243 27.7295L192.427 34.1353L195.794 23.7705L186.978 17.3647H197.876L201.243 7Z" fill="white"/>
<path d="M121.243 0L124.611 10.3647H135.509L126.692 16.7705L130.06 27.1353L121.243 20.7295L112.427 27.1353L115.794 16.7705L106.978 10.3647H117.876L121.243 0Z" fill="white"/>
<path d="M165.243 4L168.611 14.3647H179.509L170.692 20.7705L174.06 31.1353L165.243 24.7295L156.427 31.1353L159.794 20.7705L150.978 14.3647H161.876L165.243 4Z" fill="white"/>
<path d="M78.2434 4L81.6111 14.3647H92.5093L83.6925 20.7705L87.0602 31.1353L78.2434 24.7295L69.4266 31.1353L72.7943 20.7705L63.9776 14.3647H74.8757L78.2434 4Z" fill="white"/>
<path fill-rule="evenodd" clip-rule="evenodd" d="M12.687 42L15.1183 68.4311L42.9731 139.154L68.8592 192.975L121.509 225L174.159 192.975L199.606 139.154L227.9 68.4311L230.543 42H124.086V80.3342C121.197 68.8434 118.211 61.1208 115.129 57.1665L112.673 54.2356C111.951 53.5843 110.699 52.5608 108.917 51.1652C105.209 48.2343 101.405 46.7456 97.5043 46.6991H97.2876C92.6166 46.6991 88.7882 48.0482 85.8026 50.7465C82.7207 53.5378 81.1797 57.3991 81.1797 62.3303V62.749C81.1797 69.2155 85.6581 74.3794 94.615 78.2407L120.908 89.5455C131.743 94.1976 137.521 102.641 138.244 114.876V117.598C136.799 126.716 132.802 134.113 126.253 139.789C123.807 142.116 121.059 143.999 118.009 145.438V179.219H141.54L142.197 179.172C144.415 178.953 148.744 175.531 155.181 168.906L146.462 184H99.8216C103.697 183.25 106.634 181.062 108.634 177.438L108.728 177.062V148.296C106.238 148.719 103.604 148.93 100.827 148.93H100.249C96.782 148.93 91.7738 147.977 85.2248 146.069L71.7172 140.487L70.7782 140.138C65.9627 140.51 62.7845 143.464 61.2435 149V95.128C63.266 111.224 66.7573 122.762 71.7172 129.74L73.0897 131.275C73.8602 132.345 75.7864 133.927 78.8683 136.02C84.358 139.742 90.8589 141.603 98.3711 141.603H98.66C101.646 141.603 103.331 141.557 103.716 141.464C105.488 141.117 107.159 140.632 108.728 140.009V120.109L108.634 119.734C106.634 116.109 103.697 113.922 99.8216 113.172H123.678C122.492 108.365 118.487 104.537 111.662 101.688L87.1028 90.8015C74.8714 85.312 68.7076 77.2638 68.6112 66.6568V65.2612C68.8039 58.0504 71.5005 52.0491 76.7013 47.2574C79.1947 44.959 81.9925 43.2065 85.0944 42H12.687ZM107.234 42C110.546 43.4512 113.395 45.6921 115.779 48.7228L116.357 48.7926C119.502 48.4685 121.862 46.2043 123.437 42H107.234ZM28.4731 46.9877C29.1877 44.7883 32.2993 44.7883 33.014 46.9877C33.3336 47.9713 34.2502 48.6373 35.2844 48.6373C37.597 48.6373 38.5586 51.5966 36.6876 52.9559C35.8509 53.5638 35.5008 54.6414 35.8204 55.625C36.535 57.8244 34.0177 59.6534 32.1467 58.2941C31.31 57.6862 30.177 57.6862 29.3403 58.2941C27.4694 59.6534 24.952 57.8244 25.6666 55.625C25.9862 54.6414 25.6361 53.5638 24.7994 52.9559C22.9285 51.5966 23.89 48.6373 26.2026 48.6373C27.2369 48.6373 28.1535 47.9713 28.4731 46.9877ZM215.014 46.9877C214.299 44.7883 211.188 44.7883 210.473 46.9877C210.153 47.9713 209.237 48.6373 208.203 48.6373C205.89 48.6373 204.928 51.5966 206.799 52.9559C207.636 53.5638 207.986 54.6414 207.667 55.625C206.952 57.8244 209.469 59.6534 211.34 58.2941C212.177 57.6862 213.31 57.6862 214.147 58.2941C216.018 59.6534 218.535 57.8244 217.82 55.625C217.501 54.6414 217.851 53.5638 218.688 52.9559C220.559 51.5966 219.597 48.6373 217.284 48.6373C216.25 48.6373 215.334 47.9713 215.014 46.9877ZM161.244 194H83.2435V191H161.244V194ZM118.009 133.453C118.785 132.563 119.51 131.605 120.185 130.577C122.738 126.297 124.014 121.808 124.014 117.109V115.295C123.984 114.901 123.938 114.512 123.875 114.13C121.271 115.277 119.347 117.13 118.103 119.688L118.009 120.109V133.453Z" fill="white"/>
<path fill-rule="evenodd" clip-rule="evenodd" d="M0 42V61L31.7435 140.5L61.2435 201L121.244 237L181.243 201L210.243 140.5L242.487 61V42H236.113L235.243 63.6L205.059 138.764L177.911 195.964L121.743 230L65.5755 195.964L37.9595 138.764L8.24347 63.6L7.54782 42H0Z" fill="white"/>
</svg>
