<svg width="144" height="70" viewBox="0 0 324 113" fill="none" xmlns="http://www.w3.org/2000/svg">
<path d="M112.406 48.2578C112.734 50.9609 113.301 52.8984 114.105 54.0703L114.328 54.3281C114.453 54.5078 114.766 54.7734 115.266 55.125C116.156 55.75 117.211 56.0625 118.43 56.0625C118.445 56.0625 118.461 56.0625 118.477 56.0625C118.961 56.0625 119.234 56.0547 119.297 56.0391C120.453 55.8047 121.344 55.1953 121.969 54.2109C122.383 53.4922 122.59 52.7383 122.59 51.9492V51.6445C122.52 50.668 121.852 49.9062 120.586 49.3594L116.602 47.5312C114.617 46.6094 113.617 45.2578 113.602 43.4766V43.2422C113.633 42.0312 114.07 41.0234 114.914 40.2188C115.766 39.4062 116.836 39 118.125 39C118.148 39 118.172 39 118.195 39C119.492 39 120.512 39.4883 121.254 40.4648L121.348 40.4766C121.934 40.4141 122.352 39.9219 122.602 39V45.7734C122.133 43.8438 121.648 42.5469 121.148 41.8828L120.75 41.3906C120.633 41.2812 120.43 41.1094 120.141 40.875C119.539 40.3828 118.922 40.1328 118.289 40.125C118.289 40.125 118.277 40.125 118.254 40.125C117.496 40.125 116.875 40.3516 116.391 40.8047C115.891 41.2734 115.641 41.9219 115.641 42.75C115.641 42.7734 115.641 42.7969 115.641 42.8203C115.641 43.9062 116.367 44.7734 117.82 45.4219L122.086 47.3203C123.844 48.1016 124.781 49.5195 124.898 51.5742V52.0312C124.664 53.5625 124.016 54.8047 122.953 55.7578C121.914 56.7812 120.539 57.293 118.828 57.293H118.734C118.172 57.293 117.359 57.1328 116.297 56.8125L114.105 55.875L113.953 55.8164C113.172 55.8789 112.656 56.375 112.406 57.3047V48.2578ZM130.137 50.6484C130.137 52.4062 130.332 53.7031 130.723 54.5391C131.23 55.625 131.926 56.168 132.809 56.168C132.926 56.168 133.043 56.168 133.16 56.168C133.809 56.168 134.434 55.8672 135.035 55.2656L135.152 55.0898C135.27 54.9648 135.328 54.7031 135.328 54.3047V47.0742C135.328 46.6758 135.273 46.4141 135.164 46.2891L135.047 46.1133C134.445 45.5117 133.82 45.2109 133.172 45.2109C133.055 45.2109 132.938 45.2109 132.82 45.2109C131.938 45.2109 131.242 45.7539 130.734 46.8398C130.336 47.6914 130.137 48.9609 130.137 50.6484ZM127.594 50.543C127.594 49.3867 127.824 48.3125 128.285 47.3203C128.746 46.3203 129.379 45.5352 130.184 44.9648C131.012 44.3789 131.941 44.0859 132.973 44.0859C133.871 44.0859 134.977 44.3164 136.289 44.7773C138.172 45.4414 139.367 45.8867 139.875 46.1133C139.703 46.1211 139.25 46.207 138.516 46.3711C138.203 46.4414 137.965 46.5391 137.801 46.6641C137.699 46.7422 137.648 46.8789 137.648 47.0742V54.3047C137.648 54.5078 137.695 54.6445 137.789 54.7148C137.953 54.8398 138.191 54.9375 138.504 55.0078C139.238 55.1719 139.691 55.2578 139.863 55.2656C139.355 55.4922 138.16 55.9375 136.277 56.6016C134.965 57.0625 133.859 57.293 132.961 57.293C131.93 57.293 131 57 130.172 56.4141C129.367 55.8438 128.734 55.0586 128.273 54.0586C127.82 53.082 127.594 51.9102 127.594 50.543ZM140.812 57C141.781 56.8125 142.516 56.2656 143.016 55.3594L143.039 55.2656V47.0742C143.039 46.8867 142.988 46.75 142.887 46.6641C142.746 46.5391 142.508 46.4414 142.172 46.3711C141.469 46.2148 141.016 46.1289 140.812 46.1133C141.352 45.8711 142.547 45.4258 144.398 44.7773C145.711 44.3164 146.844 44.0859 147.797 44.0859C147.828 44.0859 147.859 44.0859 147.891 44.0859C149.156 44.0859 150.258 44.5234 151.195 45.3984C151.977 46.3047 152.367 47.2148 152.367 48.1289C152.367 48.1523 152.367 48.1719 152.367 48.1875C152.367 48.6172 152.219 48.9922 151.922 49.3125C151.633 49.625 151.273 49.7812 150.844 49.7812C150.414 49.7812 150.055 49.6328 149.766 49.3359C149.469 49.0312 149.32 48.6758 149.32 48.2695C149.32 48.2539 149.32 48.2422 149.32 48.2344C149.32 47.7891 149.469 47.4219 149.766 47.1328C150.055 46.8516 150.391 46.7031 150.773 46.6875C150.719 46.3672 150.336 46 149.625 45.5859C149.273 45.3828 148.816 45.2812 148.254 45.2812C148.16 45.2812 148.066 45.2852 147.973 45.293C147.121 45.3633 146.418 45.5938 145.863 45.9844C145.824 46.0078 145.711 46.1094 145.523 46.2891C145.414 46.3906 145.359 46.6523 145.359 47.0742V55.2656L145.383 55.3711C145.805 56.2383 146.539 56.7812 147.586 57H140.812ZM151.898 44.3789H158.672C157.18 45.043 156.434 45.5547 156.434 45.9141C156.434 45.9453 156.441 45.9766 156.457 46.0078L156.492 46.1133L159.422 54.0234L162.574 46.1133L162.609 45.9961C162.625 45.9414 162.633 45.8984 162.633 45.8672C162.594 45.3984 161.848 44.9023 160.395 44.3789H166.195C165.234 44.5664 164.504 45.1133 164.004 46.0195L163.969 46.1133L158.484 59.8125L158.344 60.1641C157.812 61.3516 156.992 61.9883 155.883 62.0742C155.836 62.0742 155.785 62.0742 155.73 62.0742C155.684 62.0742 155.637 62.0742 155.59 62.0742C154.668 62.0742 153.832 61.6953 153.082 60.9375C152.762 60.5625 152.602 60.1914 152.602 59.8242C152.602 59.3789 152.742 59.0156 153.023 58.7344C153.32 58.4375 153.684 58.2891 154.113 58.2891C154.535 58.2891 154.898 58.4531 155.203 58.7812C155.508 59.1094 155.66 59.4844 155.66 59.9062C155.66 60.2656 155.527 60.5859 155.262 60.8672C155.48 60.9609 155.684 61.0078 155.871 61.0078C156.176 61 156.438 60.8828 156.656 60.6562L156.938 60.2812C157.43 59.0781 157.828 58.0547 158.133 57.2109L154.125 46.1133L154.113 46.0781L154.078 45.9727C153.578 45.0977 152.852 44.5664 151.898 44.3789ZM169.559 50.6484C169.559 52.4062 169.754 53.7031 170.145 54.5391C170.652 55.625 171.348 56.168 172.23 56.168C172.348 56.168 172.465 56.168 172.582 56.168C173.23 56.168 173.855 55.8672 174.457 55.2656L174.574 55.0898C174.691 54.9648 174.75 54.7031 174.75 54.3047V47.0742C174.75 46.6758 174.695 46.4141 174.586 46.2891L174.469 46.1133C173.867 45.5117 173.242 45.2109 172.594 45.2109C172.477 45.2109 172.359 45.2109 172.242 45.2109C171.359 45.2109 170.664 45.7539 170.156 46.8398C169.758 47.6914 169.559 48.9609 169.559 50.6484ZM167.016 50.543C167.016 49.3867 167.246 48.3125 167.707 47.3203C168.168 46.3203 168.801 45.5352 169.605 44.9648C170.434 44.3789 171.363 44.0859 172.395 44.0859C173.293 44.0859 174.398 44.3164 175.711 44.7773C177.594 45.4414 178.789 45.8867 179.297 46.1133C179.125 46.1211 178.672 46.207 177.938 46.3711C177.625 46.4414 177.387 46.5391 177.223 46.6641C177.121 46.7422 177.07 46.8789 177.07 47.0742V54.3047C177.07 54.5078 177.117 54.6445 177.211 54.7148C177.375 54.8398 177.613 54.9375 177.926 55.0078C178.66 55.1719 179.113 55.2578 179.285 55.2656C178.777 55.4922 177.582 55.9375 175.699 56.6016C174.387 57.0625 173.281 57.293 172.383 57.293C171.352 57.293 170.422 57 169.594 56.4141C168.789 55.8438 168.156 55.0586 167.695 54.0586C167.242 53.082 167.016 51.9102 167.016 50.543ZM181.055 50.543C181.055 49.3867 181.285 48.3125 181.746 47.3203C182.215 46.3125 182.848 45.5273 183.645 44.9648C184.473 44.3789 185.43 44.0859 186.516 44.0859C187.359 44.0859 188.438 44.3164 189.75 44.7773C191.688 45.457 192.883 45.9023 193.336 46.1133C193.156 46.1289 192.703 46.2148 191.977 46.3711C191.664 46.4414 191.426 46.5391 191.262 46.6641C191.16 46.7422 191.109 46.8789 191.109 47.0742V57C191.008 58.7344 190.352 60.0312 189.141 60.8906C188.016 61.6875 186.875 62.0859 185.719 62.0859C185.625 62.0859 185.531 62.082 185.438 62.0742C184.203 61.9805 183.27 61.6016 182.637 60.9375C182.316 60.6016 182.156 60.2305 182.156 59.8242C182.156 59.3789 182.297 59.0156 182.578 58.7344C182.875 58.4375 183.238 58.2891 183.668 58.2891C184.09 58.2891 184.453 58.457 184.758 58.793C185.062 59.1289 185.215 59.5078 185.215 59.9297C185.215 60.2734 185.082 60.5859 184.816 60.8672C184.98 60.9609 185.203 61.0078 185.484 61.0078C185.766 61.0078 186.102 60.9609 186.492 60.8672C187.242 60.6875 187.789 60.3594 188.133 59.8828C188.57 59.25 188.789 58.3672 188.789 57.2344C188.789 57.1641 188.789 57.0859 188.789 57V56.4727C188.016 57.0195 187.172 57.293 186.258 57.293C185.305 57.293 184.434 57 183.645 56.4141C182.863 55.8359 182.234 55.0312 181.758 54C181.289 52.9844 181.055 51.832 181.055 50.543ZM183.609 50.7305C183.609 52.457 183.859 53.7461 184.359 54.5977C184.875 55.4414 185.641 55.8633 186.656 55.8633C187.438 55.8633 188.035 55.5547 188.449 54.9375C188.66 54.625 188.773 54.3438 188.789 54.0938V53.9883V47.0742C188.789 46.6758 188.734 46.4141 188.625 46.2891L188.508 46.1133C187.898 45.5117 187.207 45.2109 186.434 45.2109C186.379 45.2109 186.328 45.2109 186.281 45.2109C185.383 45.2422 184.688 45.7852 184.195 46.8398C183.805 47.6758 183.609 48.9727 183.609 50.7305ZM197.637 50.6484C197.637 52.4062 197.832 53.7031 198.223 54.5391C198.73 55.625 199.426 56.168 200.309 56.168C200.426 56.168 200.543 56.168 200.66 56.168C201.309 56.168 201.934 55.8672 202.535 55.2656L202.652 55.0898C202.77 54.9648 202.828 54.7031 202.828 54.3047V47.0742C202.828 46.6758 202.773 46.4141 202.664 46.2891L202.547 46.1133C201.945 45.5117 201.32 45.2109 200.672 45.2109C200.555 45.2109 200.438 45.2109 200.32 45.2109C199.438 45.2109 198.742 45.7539 198.234 46.8398C197.836 47.6914 197.637 48.9609 197.637 50.6484ZM195.094 50.543C195.094 49.3867 195.324 48.3125 195.785 47.3203C196.246 46.3203 196.879 45.5352 197.684 44.9648C198.512 44.3789 199.441 44.0859 200.473 44.0859C201.371 44.0859 202.477 44.3164 203.789 44.7773C205.672 45.4414 206.867 45.8867 207.375 46.1133C207.203 46.1211 206.75 46.207 206.016 46.3711C205.703 46.4414 205.465 46.5391 205.301 46.6641C205.199 46.7422 205.148 46.8789 205.148 47.0742V54.3047C205.148 54.5078 205.195 54.6445 205.289 54.7148C205.453 54.8398 205.691 54.9375 206.004 55.0078C206.738 55.1719 207.191 55.2578 207.363 55.2656C206.855 55.4922 205.66 55.9375 203.777 56.6016C202.465 57.0625 201.359 57.293 200.461 57.293C199.43 57.293 198.5 57 197.672 56.4141C196.867 55.8438 196.234 55.0586 195.773 54.0586C195.32 53.082 195.094 51.9102 195.094 50.543ZM208.898 53.9297C208.898 53.5 209.047 53.1367 209.344 52.8398C209.641 52.5352 210 52.3828 210.422 52.3828C210.844 52.3828 211.203 52.5352 211.5 52.8398C211.797 53.1367 211.945 53.5 211.945 53.9297C211.945 54.3281 211.797 54.6953 211.5 55.0312C211.438 55.1016 211.367 55.168 211.289 55.2305L211.43 55.3477C212.133 55.8789 212.949 56.1445 213.879 56.1445C213.887 56.1445 213.898 56.1445 213.914 56.1445C214.656 56.1445 215.27 55.9492 215.754 55.5586C216.176 55.2148 216.402 54.6172 216.434 53.7656V53.543C216.395 52.707 216 52.1641 215.25 51.9141L212.062 50.9766C210.867 50.625 210.117 49.7773 209.812 48.4336C209.781 48.1992 209.766 47.9688 209.766 47.7422C209.766 46.9688 210.074 46.2031 210.691 45.4453C211.434 44.5391 212.469 44.0859 213.797 44.0859C215.039 44.0859 216.098 44.5 216.973 45.3281C217.262 45.6016 217.484 45.8828 217.641 46.1719C217.758 46.3906 217.816 46.6406 217.816 46.9219C217.816 47.3438 217.668 47.707 217.371 48.0117C217.074 48.3164 216.715 48.4688 216.293 48.4688C215.871 48.4688 215.512 48.3164 215.215 48.0117C214.918 47.707 214.77 47.3398 214.77 46.9102C214.77 46.4805 214.918 46.1172 215.215 45.8203L215.438 45.668C214.961 45.4023 214.418 45.2695 213.809 45.2695H213.773C213.25 45.3086 212.777 45.5039 212.355 45.8555C212.012 46.2148 211.84 46.7266 211.84 47.3906C211.84 47.4453 211.84 47.5 211.84 47.5547C211.84 48.2109 212.172 48.6797 212.836 48.9609L215.613 49.6875C216.426 49.9844 217.031 50.3047 217.43 50.6484C218.18 51.2969 218.562 52.2695 218.578 53.5664C218.5 54.5273 218.07 55.4141 217.289 56.2266C216.594 56.9375 215.449 57.293 213.855 57.293C212.457 57.293 211.23 56.8398 210.176 55.9336C209.629 55.457 209.27 55.0508 209.098 54.7148C209.051 54.6211 209.016 54.543 208.992 54.4805C208.93 54.3164 208.898 54.1328 208.898 53.9297ZM220.102 57C221.07 56.8125 221.805 56.2656 222.305 55.3594L222.328 55.2656V41.6016C222.328 41.4062 222.277 41.2695 222.176 41.1914C222.012 41.0664 221.773 40.9688 221.461 40.8984C220.773 40.7422 220.32 40.6562 220.102 40.6406C220.367 40.5234 221.562 40.0781 223.688 39.3047C224.016 39.1875 224.336 39.0859 224.648 39V44.9883L224.684 44.9648C225.465 44.3789 226.336 44.0859 227.297 44.0859C228.242 44.0859 229.113 44.3789 229.91 44.9648C230.699 45.543 231.328 46.3477 231.797 47.3789C232.266 48.4102 232.5 49.5156 232.5 50.6953V50.7656V54.6914C232.5 54.8867 232.551 55.0234 232.652 55.1016C232.809 55.2266 233.047 55.3242 233.367 55.3945C234.078 55.5508 234.531 55.6367 234.727 55.6523C234.289 55.8477 233.094 56.293 231.141 56.9883C230.812 57.1055 230.492 57.207 230.18 57.293V50.7422V50.6953C230.18 48.9141 229.84 47.5938 229.16 46.7344C228.52 45.9219 227.75 45.5156 226.852 45.5156C226.836 45.5156 226.82 45.5156 226.805 45.5156C225.812 45.5156 225.094 45.875 224.648 46.5938V55.2656L224.672 55.3711C225.094 56.2383 225.828 56.7812 226.875 57H220.102Z" fill="white"/>
<path d="M91.7031 91C92.6719 90.8125 93.4062 90.2656 93.9062 89.3594L93.9297 89.2656V75.0273L93.9062 74.9336C93.4062 74.0273 92.6719 73.4805 91.7031 73.293H98.4766C97.4297 73.5117 96.6953 74.0547 96.2734 74.9219L96.25 75.0273V89.8047H102.133L102.297 89.793C102.852 89.7383 103.934 88.8828 105.543 87.2266L103.363 91H91.7031ZM105.32 73.293C105.32 73.293 107.578 73.293 112.094 73.293C111.047 73.5117 110.312 74.0547 109.891 74.9219L109.867 75.0273V85.1641C109.906 86.3281 110.32 87.3203 111.109 88.1406C111.953 89.0156 112.977 89.4531 114.18 89.4531C115.383 89.4531 116.406 89.0156 117.25 88.1406C118.039 87.3203 118.457 86.3281 118.504 85.1641V75.0273L118.48 74.9336C117.98 74.0273 117.246 73.4805 116.277 73.293H122.043C120.996 73.5117 120.262 74.0547 119.84 74.9219L119.816 75.0273V85.1641V85.1992C119.816 86.0273 119.652 86.8164 119.324 87.5664C119.004 88.3164 118.574 88.9648 118.035 89.5117C117.488 90.0586 116.836 90.4922 116.078 90.8125C115.32 91.1328 114.523 91.293 113.688 91.293C112.852 91.293 112.055 91.1328 111.297 90.8125C110.539 90.4922 109.887 90.0586 109.34 89.5117C108.801 88.9648 108.367 88.3164 108.039 87.5664C107.711 86.8164 107.547 86.0273 107.547 85.1992V85.1641V75.0273L107.523 74.9336C107.023 74.0273 106.289 73.4805 105.32 73.293ZM122.734 91C123.477 90.8125 124.113 90.4023 124.645 89.7695L124.949 89.2891L129.086 82.5625L124.633 75.0273L124.574 74.9219C124.129 74.1172 123.406 73.5742 122.406 73.293H129.18C127.789 73.8867 127.094 74.3828 127.094 74.7812C127.094 74.8359 127.109 74.8906 127.141 74.9453L127.176 75.0273L130.445 80.6289L133.797 75.0156L133.855 74.9102C133.918 74.8086 133.949 74.707 133.949 74.6055V74.5938C133.949 74.1328 133.23 73.6992 131.793 73.293H137.477C136.641 73.5273 136 73.9453 135.555 74.5469L135.285 74.9688L131.266 81.9297L135.566 89.3828L135.637 89.5C136.09 90.2344 136.789 90.7344 137.734 91H130.961C132.383 90.5547 133.094 90.0938 133.094 89.6172C133.094 89.5312 133.07 89.4453 133.023 89.3594L132.977 89.2656L129.859 83.8633L126.414 89.2656L126.355 89.3594C126.285 89.4766 126.25 89.5898 126.25 89.6992C126.25 90.1914 126.973 90.625 128.418 91H122.734ZM138.086 91C139.055 90.8125 139.789 90.2656 140.289 89.3594L140.312 89.2656V75.0273L140.289 74.9336C139.789 74.0273 139.055 73.4805 138.086 73.293H149.172L151.352 77.0664C149.742 75.4102 148.66 74.5547 148.105 74.5L147.941 74.4883H142.633V83.4766H146.301L146.465 83.4648C147.02 83.4102 148.102 82.5547 149.711 80.8984L146.324 86.7695C146.395 86.5117 146.43 86.2734 146.43 86.0547C146.43 85.4766 146.195 85.0273 145.727 84.707L145.645 84.6719H142.633V89.8047H149.465L149.629 89.793C150.184 89.7383 151.266 88.8828 152.875 87.2266L150.695 91H138.086Z" fill="white"/>
<g clip-path="url(#clip0_64_134)">
<path d="M30.0873 19.3038L31.2376 22.715H34.96L31.9485 24.8232L33.0988 28.2344L30.0873 26.1262L27.0758 28.2344L28.2261 24.8232L25.2146 22.715H28.937L30.0873 19.3038Z" fill="white"/>
<path d="M84.7373 19.3038L85.8877 22.715H89.61L86.5985 24.8232L87.7488 28.2344L84.7373 26.1262L81.7261 28.2344L82.8761 24.8232L79.8649 22.715H83.5872L84.7373 19.3038Z" fill="white"/>
<path d="M57.4122 17L58.5626 20.4112H62.285L59.2734 22.5194L60.4238 25.9306L57.4122 23.8224L54.401 25.9306L55.551 22.5194L52.5398 20.4112H56.2622L57.4122 17Z" fill="white"/>
<path d="M72.441 18.3165L73.5914 21.7276H77.3138L74.3022 23.8359L75.4526 27.2471L72.441 25.1388L69.4298 27.2471L70.5798 23.8359L67.5686 21.7276H71.291L72.441 18.3165Z" fill="white"/>
<path d="M42.7251 18.3165L43.8754 21.7276H47.5978L44.5863 23.8359L45.7366 27.2471L42.7251 25.1388L39.7136 27.2471L40.8639 23.8359L37.8524 21.7276H41.5748L42.7251 18.3165Z" fill="white"/>
<path fill-rule="evenodd" clip-rule="evenodd" d="M20.3334 30.8228L21.1638 39.5216L30.678 62.7975L39.5198 80.5108L57.503 91.0506L75.4864 80.5108L84.1781 62.7975L93.8423 39.5216L94.7451 30.8228H58.3832V43.4391C57.3965 39.6573 56.3766 37.1157 55.3239 35.8143L54.485 34.8497C54.2384 34.6353 53.8107 34.2985 53.2021 33.8392C51.9355 32.8746 50.6362 32.3846 49.3039 32.3693H49.2299C47.6344 32.3693 46.3268 32.8133 45.307 33.7014C44.2544 34.62 43.728 35.8908 43.728 37.5138V37.6516C43.728 39.7798 45.2577 41.4793 48.317 42.7501L57.2977 46.4707C60.9986 48.0017 62.9722 50.7806 63.2191 54.8073V55.7031C62.7255 58.704 61.3603 61.1385 59.1234 63.0065C58.2879 63.7724 57.3493 64.3921 56.3076 64.8657V75.9835H64.3449L64.5693 75.968C65.3269 75.8959 66.8055 74.7697 69.0042 72.5893L66.0261 77.557H50.0954C51.4191 77.3101 52.4223 76.59 53.1054 75.3973L53.1375 75.2736V65.8063C52.287 65.9455 51.3873 66.0149 50.4388 66.0149H50.2414C49.0572 66.0149 47.3466 65.7013 45.1097 65.0733L40.496 63.2362L40.1752 63.1214C38.5304 63.2438 37.4449 64.216 36.9185 66.038V48.3079C37.6093 53.6054 38.8018 57.4027 40.496 59.6992L40.9647 60.2044C41.2279 60.5566 41.8858 61.0772 42.9385 61.7661C44.8136 62.991 47.0341 63.6035 49.6 63.6035H49.6986C50.7185 63.6035 51.2941 63.5884 51.4256 63.5578C52.0308 63.4436 52.6016 63.284 53.1375 63.0789V56.5295L53.1054 56.4061C52.4223 55.2131 51.4191 54.4933 50.0954 54.2465H58.2439C57.8388 52.6644 56.4708 51.4046 54.1397 50.4669L45.7511 46.884C41.5733 45.0774 39.468 42.4286 39.4351 38.9377V38.4784C39.5009 36.1052 40.4219 34.1301 42.1983 32.5531C43.05 31.7966 44.0056 31.2199 45.0651 30.8228H20.3334ZM52.6272 30.8228C53.7585 31.3004 54.7316 32.0379 55.5459 33.0354L55.7433 33.0583C56.8175 32.9517 57.6236 32.2065 58.1616 30.8228H52.6272ZM25.7253 32.4643C25.9694 31.7405 27.0322 31.7405 27.2763 32.4643C27.3855 32.788 27.6986 33.0072 28.0518 33.0072C28.8417 33.0072 29.1702 33.9812 28.5311 34.4285C28.2453 34.6286 28.1257 34.9832 28.2349 35.307C28.479 36.0308 27.6192 36.6328 26.9801 36.1854C26.6943 35.9853 26.3073 35.9853 26.0215 36.1854C25.3825 36.6328 24.5227 36.0308 24.7667 35.307C24.8759 34.9832 24.7563 34.6286 24.4705 34.4285C23.8315 33.9812 24.1599 33.0072 24.9498 33.0072C25.3031 33.0072 25.6162 32.788 25.7253 32.4643ZM89.441 32.4643C89.1967 31.7405 88.1341 31.7405 87.8899 32.4643C87.7806 32.788 87.4677 33.0072 87.1146 33.0072C86.3245 33.0072 85.9959 33.9812 86.635 34.4285C86.9209 34.6286 87.0404 34.9832 86.9315 35.307C86.6873 36.0308 87.547 36.6328 88.186 36.1854C88.4719 35.9853 88.8589 35.9853 89.1448 36.1854C89.7839 36.6328 90.6436 36.0308 90.3994 35.307C90.2904 34.9832 90.41 34.6286 90.6959 34.4285C91.3349 33.9812 91.0063 33.0072 90.2163 33.0072C89.8631 33.0072 89.5503 32.788 89.441 32.4643ZM71.0751 80.8481H44.4329V79.8608H71.0751V80.8481ZM56.3076 60.9212C56.5726 60.6283 56.8202 60.313 57.0508 59.9747C57.9228 58.5661 58.3586 57.0887 58.3586 55.5422V54.9452C58.3484 54.8155 58.3327 54.6875 58.3112 54.5618C57.4217 54.9393 56.7646 55.5491 56.3397 56.391L56.3076 56.5295V60.9212Z" fill="white"/>
<path fill-rule="evenodd" clip-rule="evenodd" d="M16 30.8228V37.0759L26.8424 63.2405L36.9186 83.1519L57.4126 95L77.9061 83.1519L87.8114 63.2405L98.8248 37.0759V30.8228H96.6477L96.3505 37.9316L86.0407 62.6692L76.768 81.4945L57.583 92.6962L38.3982 81.4945L28.9656 62.6692L18.8157 37.9316L18.5781 30.8228H16Z" fill="white"/>
</g>
<rect x="2.5" y="2.5" width="250" height="108" stroke="white" stroke-width="5"/>
<rect x="10.5" y="10.5" width="234" height="93" stroke="white" stroke-width="3"/>
<line x1="109.998" y1="62.9959" x2="234.002" y2="62.9959" stroke="white"/>
<line x1="90" y1="94.5" x2="150" y2="94.5" stroke="white"/>
<defs>
<clipPath id="clip0_64_134">
<rect width="83" height="78" fill="white" transform="translate(16 17)"/>
</clipPath>
</defs>
</svg>
