<svg width="30" height="30" viewBox="0 0 30 30" fill="none" xmlns="http://www.w3.org/2000/svg">
<path d="M10.3066 22.2232C11.1743 23.3289 11.964 24.4936 12.6699 25.7088C13.2727 26.8519 13.5239 27.6268 13.9645 29.004C14.2346 29.7648 14.4788 29.9919 15.0037 29.9919C15.5758 29.9919 15.8353 29.6056 16.0359 29.0081C16.4523 27.7076 16.779 26.715 17.2945 25.7773C18.306 23.9666 19.5628 22.3577 20.7978 20.8112C21.1323 20.3736 23.2938 17.8239 24.267 15.8122C24.267 15.8122 25.4631 13.6022 25.4631 10.5158C25.4631 7.62881 24.2835 5.62646 24.2835 5.62646L20.8875 6.53592L18.825 11.9679L18.3148 12.7169L18.2128 12.8526L18.0771 13.0224L17.8389 13.2937L17.4985 13.6341L15.6619 15.1304L11.0704 17.7815L10.3066 22.2232Z" fill="#34A853"/>
<path d="M5.56775 15.4405C6.68835 18.0002 8.84935 20.2503 10.3114 22.2249L18.0772 13.0259C18.0772 13.0259 16.9832 14.4568 14.9985 14.4568C12.788 14.4568 11.0021 12.6915 11.0021 10.4657C11.0021 8.93927 11.9204 7.89062 11.9204 7.89062L6.64884 9.30317L5.56775 15.4405Z" fill="#FBBC04"/>
<path d="M18.1639 0.473145C20.7431 1.30475 22.9507 3.05053 24.2859 5.62497L18.0796 13.0209C18.0796 13.0209 18.9979 11.9534 18.9979 10.4365C18.9979 8.15871 17.0799 6.45716 15.0079 6.45716C13.0487 6.45716 11.9233 7.88564 11.9233 7.88564V3.22629L18.1639 0.473145Z" fill="#4285F4"/>
<path d="M6.99023 3.74104C8.53077 1.89795 11.2414 0 14.9784 0C16.7914 0 18.1573 0.475961 18.1573 0.475961L11.9173 7.88963H7.49627L6.99023 3.74104Z" fill="#1A73E8"/>
<path d="M5.5677 15.4409C5.5677 15.4409 4.53674 13.422 4.53674 10.4973C4.53674 7.73292 5.61134 5.31654 6.99027 3.74121L11.9209 7.89039L5.5677 15.4409Z" fill="#EA4335"/>
</svg>
