<svg width="30" height="30" viewBox="0 0 30 30" fill="none" xmlns="http://www.w3.org/2000/svg">
<g clip-path="url(#clip0_70_177)">
<path d="M15 0C6.71566 0 0 6.71566 0 15C0 23.2843 6.71566 30 15 30C23.2843 30 30 23.2843 30 15C30 6.71566 23.2843 0 15 0Z" fill="#40B3E0"/>
<path d="M22.2988 8.62852L19.6196 22.1364C19.6196 22.1364 19.245 23.0732 18.2145 22.6235L12.032 17.8835L9.78383 16.797L5.99938 15.5229C5.99938 15.5229 5.4186 15.3169 5.36235 14.8672C5.30621 14.4176 6.01813 14.1741 6.01813 14.1741L21.0622 8.27251C21.0622 8.27251 22.2988 7.72923 22.2988 8.62852Z" fill="white"/>
<path d="M11.5567 21.9849C11.5567 21.9849 11.3763 21.968 11.1514 21.256C10.9266 20.5441 9.78381 16.7971 9.78381 16.7971L18.8702 11.0268C18.8702 11.0268 19.3948 10.7083 19.3761 11.0268C19.3761 11.0268 19.4697 11.0829 19.1887 11.3452C18.9077 11.6076 12.0507 17.7713 12.0507 17.7713" fill="#D2E5F1"/>
<path d="M14.4025 19.701L11.9571 21.9306C11.9571 21.9306 11.7659 22.0757 11.5568 21.9848L12.025 17.8433" fill="#B5CFE4"/>
</g>
<defs>
<clipPath id="clip0_70_177">
<rect width="30" height="30" fill="white"/>
</clipPath>
</defs>
</svg>
