<svg width="30" height="30" viewBox="0 0 30 30" fill="none" xmlns="http://www.w3.org/2000/svg">
<g clip-path="url(#clip0_70_158)">
<path d="M0 30L2.58 22.2605C1.27086 20.0586 0.517241 17.489 0.517241 14.7414C0.517241 6.6 7.11724 0 15.2586 0C23.4 0 30 6.6 30 14.7414C30 22.8828 23.4 29.4828 15.2586 29.4828C12.7816 29.4828 10.4488 28.8688 8.4 27.7898L0 30Z" fill="#2CB742"/>
<path d="M24.6636 19.6472C23.9829 18.3608 21.4728 16.8898 21.4728 16.8898C20.9048 16.566 20.2195 16.5298 19.8957 17.107C19.8957 17.107 19.08 18.0851 18.8726 18.2258C17.925 18.8677 17.0472 18.8429 16.1612 17.9569L14.1021 15.8977L12.0429 13.8386C11.1569 12.9526 11.1321 12.0748 11.774 11.1272C11.9147 10.9198 12.8928 10.1041 12.8928 10.1041C13.47 9.7798 13.4338 9.09498 13.11 8.52704C13.11 8.52704 11.639 6.01687 10.3526 5.33618C9.80534 5.04653 9.13345 5.14791 8.69586 5.58549L7.78655 6.4948C4.90189 9.37946 6.32224 12.636 9.20689 15.5207L11.8433 18.157L14.4797 20.7934C17.3643 23.6781 20.6209 25.0984 23.5055 22.2138L24.4148 21.3045C24.8524 20.8658 24.9533 20.1939 24.6636 19.6472Z" fill="white"/>
</g>
<defs>
<clipPath id="clip0_70_158">
<rect width="30" height="30" fill="white"/>
</clipPath>
</defs>
</svg>
